<?xml version="1.0" standalone="no"?>
<!DOCTYPE svg PUBLIC "-//W3C//DTD SVG 20010904//EN"
 "http://www.w3.org/TR/2001/REC-SVG-20010904/DTD/svg10.dtd">
<svg version="1.0" xmlns="http://www.w3.org/2000/svg"
 width="125.000000pt" height="35.000000pt" viewBox="0 0 367.000000 187.000000"
 preserveAspectRatio="xMidYMid meet">

<g transform="translate(0.000000,187.000000) scale(0.100000,-0.100000)"
fill="#000000" stroke="none">
<path d="M3130 1770 c-30 -5 -139 -14 -241 -19 -102 -6 -286 -20 -410 -32
-199 -19 -285 -21 -764 -19 -766 2 -967 -14 -1400 -110 -218 -48 -238 -86
-166 -299 22 -64 42 -131 46 -148 4 -19 13 -33 21 -33 8 0 14 -6 14 -13 0 -8
16 -22 35 -33 24 -13 33 -23 29 -34 -14 -34 -15 -88 -4 -145 6 -33 12 -66 13
-74 1 -8 -16 -20 -41 -28 -41 -14 -72 -51 -72 -87 0 -9 -11 -16 -28 -18 -29
-3 -28 -1 -37 -113 -5 -61 12 -213 26 -229 4 -4 3 -21 -3 -38 -14 -39 5 -58
97 -104 101 -50 124 -54 370 -64 137 -5 241 -14 275 -24 34 -9 59 -11 64 -5
14 13 36 11 36 -3 0 -7 12 -21 26 -32 22 -15 28 -16 35 -5 5 8 9 20 9 27 0 6
5 12 10 12 6 0 10 7 10 15 0 8 -5 15 -11 15 -5 0 -7 5 -4 10 13 21 25 9 36
-35 6 -25 16 -48 22 -52 6 -4 8 0 4 11 -4 10 1 25 13 38 l19 21 13 -29 c6 -16
13 -30 14 -32 1 -2 11 2 22 9 16 10 30 10 73 -3 39 -11 62 -12 83 -5 19 6 40
6 61 0 20 -7 39 -7 49 -1 10 6 22 6 29 0 7 -5 122 -7 272 -5 143 2 478 5 745
7 267 3 532 9 590 16 97 10 316 58 367 80 58 24 82 140 94 450 27 693 23 844
-23 967 -55 147 -222 224 -418 193z m-2009 -252 c85 -36 127 -107 114 -193 -8
-57 -33 -87 -70 -87 -44 0 -66 33 -58 87 11 84 -44 122 -165 112 -104 -8 -156
-62 -133 -138 14 -48 39 -65 176 -125 160 -70 215 -127 215 -221 -1 -91 -51
-162 -145 -205 -43 -20 -66 -23 -170 -23 -109 0 -125 2 -176 26 -75 35 -102
75 -107 156 -4 59 -3 64 27 93 24 24 36 30 53 24 40 -12 47 -24 50 -92 3 -67
3 -67 41 -86 27 -13 61 -18 112 -19 120 -1 179 38 177 114 -1 54 -37 79 -207
150 -97 40 -170 106 -181 163 -12 65 1 134 32 179 34 49 113 95 182 107 67 12
179 1 233 -22z m308 -347 c12 -8 11 -24 -7 -110 -23 -108 -29 -201 -12 -201
32 0 74 74 115 200 28 89 52 120 90 120 45 0 48 -19 20 -154 -41 -198 -25
-239 61 -155 l44 43 0 118 c0 113 1 118 24 133 14 9 39 15 58 13 29 -3 34 -7
38 -37 l5 -33 20 22 c52 58 117 65 170 19 62 -55 71 -156 21 -265 l-25 -54 28
0 c15 0 43 10 62 23 31 21 34 27 37 81 3 74 34 147 83 190 129 118 303 25 244
-129 -20 -53 -62 -88 -134 -114 -66 -23 -69 -27 -32 -45 55 -29 126 -15 197
39 28 21 33 32 39 87 10 89 33 170 53 190 21 21 72 32 91 19 12 -7 11 -19 -2
-77 -9 -38 -19 -85 -22 -104 -5 -32 -3 -30 21 19 37 74 108 146 161 161 37 11
46 11 68 -4 26 -17 27 -19 20 -102 -9 -102 2 -113 67 -65 47 35 68 29 68 -19
0 -37 -31 -74 -83 -99 -60 -29 -108 -27 -146 5 -28 23 -31 31 -31 85 0 50 -2
57 -16 52 -28 -10 -74 -94 -101 -183 -14 -47 -33 -93 -41 -102 -28 -33 -85
-17 -96 27 l-7 26 -30 -22 c-40 -28 -111 -49 -168 -49 -46 0 -121 28 -152 56
-15 14 -21 12 -62 -17 -55 -38 -121 -49 -167 -25 -30 14 -37 14 -90 -1 l-57
-17 -7 -76 c-12 -147 -57 -279 -110 -329 -36 -34 -110 -36 -137 -3 -48 60 -46
187 7 332 13 37 24 70 24 74 0 3 -15 6 -34 6 -48 0 -85 33 -92 82 l-7 40 -22
-44 c-43 -87 -124 -100 -172 -29 -19 28 -23 47 -23 114 0 112 34 251 67 277
27 21 59 25 82 11z"/>
<path d="M1894 1046 c-34 -34 -34 -34 -34 -130 0 -109 7 -116 58 -63 73 75 90
227 25 227 -8 0 -30 -15 -49 -34z"/>
<path d="M2331 1054 c-12 -15 -24 -39 -27 -53 -13 -64 -14 -62 9 -55 70 21
101 54 95 102 -4 39 -48 43 -77 6z"/>
<path d="M1696 651 c-52 -161 -59 -301 -12 -262 8 7 19 34 25 59 12 58 34 302
27 309 -2 3 -20 -45 -40 -106z"/>
</g>
</svg>
